<?xml version="1.0" encoding="utf-8"?><!-- Uploaded to: SVG Repo, www.svgrepo.com, Generator: SVG Repo Mixer Tools -->
<svg version="1.1" id="Uploaded to svgrepo.com" xmlns="http://www.w3.org/2000/svg" xmlns:xlink="http://www.w3.org/1999/xlink" 
	 width="800px" height="800px" viewBox="0 0 32 32" xml:space="preserve">
<style type="text/css">
	.puchipuchi_een{fill:#111918;}
</style>
<path class="puchipuchi_een" d="M30,7H2C0.9,7,0,7.9,0,9v15c0,1.1,0.9,2,2,2h28c1.1,0,2-0.9,2-2V9C32,7.9,31.1,7,30,7z M18.5,10
	c0.828,0,1.5,0.672,1.5,1.5S19.328,13,18.5,13S17,12.328,17,11.5S17.672,10,18.5,10z M18.5,15c0.828,0,1.5,0.672,1.5,1.5
	S19.328,18,18.5,18S17,17.328,17,16.5S17.672,15,18.5,15z M13.5,10c0.828,0,1.5,0.672,1.5,1.5S14.328,13,13.5,13S12,12.328,12,11.5
	S12.672,10,13.5,10z M13.5,15c0.828,0,1.5,0.672,1.5,1.5S14.328,18,13.5,18S12,17.328,12,16.5S12.672,15,13.5,15z M8.5,10
	c0.828,0,1.5,0.672,1.5,1.5S9.328,13,8.5,13S7,12.328,7,11.5S7.672,10,8.5,10z M8.5,15c0.828,0,1.5,0.672,1.5,1.5S9.328,18,8.5,18
	S7,17.328,7,16.5S7.672,15,8.5,15z M3.5,23C2.672,23,2,22.328,2,21.5S2.672,20,3.5,20S5,20.672,5,21.5S4.328,23,3.5,23z M3.5,18
	C2.672,18,2,17.328,2,16.5S2.672,15,3.5,15S5,15.672,5,16.5S4.328,18,3.5,18z M3.5,13C2.672,13,2,12.328,2,11.5S2.672,10,3.5,10
	S5,10.672,5,11.5S4.328,13,3.5,13z M23.5,23h-15C7.671,23,7,22.329,7,21.5S7.671,20,8.5,20h15c0.829,0,1.5,0.671,1.5,1.5
	S24.329,23,23.5,23z M23.5,18c-0.828,0-1.5-0.672-1.5-1.5s0.672-1.5,1.5-1.5s1.5,0.672,1.5,1.5S24.328,18,23.5,18z M23.5,13
	c-0.828,0-1.5-0.672-1.5-1.5s0.672-1.5,1.5-1.5s1.5,0.672,1.5,1.5S24.328,13,23.5,13z M28.5,23c-0.828,0-1.5-0.672-1.5-1.5
	s0.672-1.5,1.5-1.5s1.5,0.672,1.5,1.5S29.328,23,28.5,23z M28.5,18c-0.828,0-1.5-0.672-1.5-1.5s0.672-1.5,1.5-1.5s1.5,0.672,1.5,1.5
	S29.328,18,28.5,18z M28.5,13c-0.828,0-1.5-0.672-1.5-1.5s0.672-1.5,1.5-1.5s1.5,0.672,1.5,1.5S29.328,13,28.5,13z"/>
</svg>